<svg version="1.1" id="Layer_1" xmlns="http://www.w3.org/2000/svg" xmlns:xlink="http://www.w3.org/1999/xlink" x="0px" y="0px"
	 width="100%" viewBox="0 0 672 677" enable-background="new 0 0 672 677" xml:space="preserve">
<path fill="#F99B55" opacity="1.000000" stroke="none" 
	d="
M91.309097,677.716370 
	C62.181087,678.000000 33.361973,677.952515 4.543575,678.074097 
	C1.687167,678.086121 0.908297,677.654114 0.909676,674.546692 
	C1.008809,451.158539 1.010846,227.770325 0.895628,4.382163 
	C0.893921,1.071876 1.955374,0.938415 4.614523,0.944835 
	C39.097084,1.028086 73.579918,1.000000 108.531342,1.000000 
	C111.291176,2.779157 111.178795,5.352159 111.208748,7.845798 
	C111.316818,16.841070 111.253334,25.836998 111.254257,34.832634 
	C111.260033,90.972687 111.248268,147.112732 111.269257,203.252792 
	C111.271683,209.738922 111.051819,216.222656 112.028435,222.697144 
	C112.572014,226.300842 112.451187,230.013580 111.607986,234.080475 
	C111.698021,239.055115 108.434837,241.816818 105.799026,244.635788 
	C86.467216,265.310822 75.262535,289.901093 72.480453,317.798737 
	C69.676651,345.914154 74.595634,372.838409 89.845734,397.259155 
	C91.425934,399.789642 93.164619,402.274933 93.346230,405.814453 
	C91.707214,409.797119 93.891563,413.239532 93.787697,416.871368 
	C93.557709,424.912659 93.679893,433.026611 93.754532,441.104401 
	C93.830688,449.345642 93.813393,457.600922 93.696632,465.850555 
	C93.582268,473.931732 93.660866,482.018494 93.666191,490.102509 
	C93.671844,498.677216 93.677963,507.251801 93.667091,515.826660 
	C93.656845,523.912109 93.655693,531.997803 93.657097,540.083191 
	C93.658585,548.660217 93.673019,557.237366 93.665657,565.814636 
	C93.658714,573.900085 93.659866,581.985657 93.665245,590.070984 
	C93.670952,598.648071 93.700706,607.225159 93.674599,615.802673 
	C93.649994,623.887207 93.646866,631.972961 93.684677,640.056396 
	C93.724022,648.470825 93.653320,656.886230 93.706650,665.300842 
	C93.718117,667.109375 93.419571,668.900024 93.771141,670.735046 
	C94.264534,673.310303 94.005058,675.738403 91.309097,677.716370 
z"/>
<path fill="#F6C55B" opacity="1.000000" stroke="none" 
	d="
M575.659363,1.359467 
	C607.150940,1.000000 638.302063,1.043349 669.452576,0.927161 
	C672.297668,0.916549 673.092529,1.330791 673.091125,4.449321 
	C672.991089,227.836487 672.989380,451.223694 673.103088,674.610840 
	C673.104736,677.901001 672.071045,678.065735 669.392456,678.057434 
	C639.907654,677.966003 610.422424,678.000000 580.468628,678.000000 
	C577.651978,676.026062 577.010071,673.498779 576.924133,670.468079 
	C576.669312,661.482910 576.757812,652.499756 576.755920,643.516479 
	C576.738708,562.485168 576.746887,481.453827 576.744080,400.422485 
	C576.744019,397.094635 576.698242,393.765930 577.047363,390.013184 
	C576.238342,386.751984 577.819824,384.832092 579.510681,382.919739 
	C594.473145,365.997375 603.803406,346.251617 606.444519,323.950195 
	C608.757141,304.423401 606.470520,285.169800 598.062561,266.954102 
	C593.004700,255.996521 586.730408,245.940582 578.609741,236.985168 
	C576.450867,234.604446 573.859131,232.188126 574.021118,228.017914 
	C573.775146,223.429871 573.733032,219.274353 573.733887,215.114105 
	C573.747925,147.352264 573.722900,79.590408 573.793518,11.828631 
	C573.797058,8.435662 572.861938,4.788068 575.659363,1.359467 
z"/>
<path fill="#F7BE5B" opacity="1.000000" stroke="none" 
	d="
M577.744019,387.914551 
	C579.409973,390.618561 578.986572,393.334961 578.987061,395.974976 
	C579.002686,484.437134 578.983032,572.899292 579.042297,661.361450 
	C579.045837,666.643005 579.660095,671.924133 579.995117,677.602783 
	C547.979126,678.000000 515.958191,678.000000 483.468658,678.000000 
	C480.708710,676.255920 479.815216,673.956238 479.803864,671.073120 
	C479.701630,645.118225 479.701569,619.163574 479.829559,593.208923 
	C479.836914,591.714844 479.912292,590.206970 480.840576,588.403870 
	C482.664459,585.792603 485.074585,585.904724 487.390625,585.829895 
	C492.376862,585.668823 497.366455,585.760986 502.354187,585.737793 
	C506.128662,585.720276 507.749908,583.943298 507.747742,580.222168 
	C507.742279,570.744629 507.724823,561.266907 507.753937,551.789673 
	C507.766541,547.675598 505.722687,546.325745 501.873962,546.218933 
	C494.416870,546.012024 486.919678,546.955933 479.100525,545.286255 
	C473.162354,539.128784 473.862762,532.528259 476.803772,525.308716 
	C478.687561,522.802856 481.087494,522.913086 483.406921,522.864868 
	C489.058624,522.747559 494.713257,522.759705 500.363831,522.829163 
	C504.094269,522.875000 505.844086,521.435791 505.824127,517.552063 
	C505.762604,505.582458 505.804474,493.612030 505.803345,481.641968 
	C505.803009,478.146881 504.096710,475.734772 501.784821,473.425171 
	C493.894440,465.542633 486.951630,456.855621 480.355682,447.881531 
	C478.859863,445.846344 477.499023,443.769714 477.977966,440.640076 
	C479.206024,438.725342 478.747284,437.023224 478.749908,435.390167 
	C478.774231,420.109406 478.730103,404.828583 478.785889,389.547974 
	C478.794922,387.073486 478.567444,384.552979 479.751343,381.813049 
	C483.012360,378.767914 485.247009,380.954407 487.268799,382.877289 
	C492.919739,388.251740 498.688751,393.518921 504.239380,398.973206 
	C510.383575,405.010681 517.428101,410.126312 522.771851,416.997498 
	C525.393372,420.368347 528.544495,418.473907 531.371399,417.278320 
	C542.584167,412.536133 553.000427,406.426758 562.607361,398.917267 
	C566.275208,396.050201 569.692871,392.915466 573.159729,389.828552 
	C574.414001,388.711731 575.597168,387.541534 577.744019,387.914551 
z"/>
<path fill="#F8A456" opacity="1.000000" stroke="none" 
	d="
M110.517052,236.455383 
	C107.751030,174.547440 109.538528,112.734634 109.020660,50.935638 
	C108.883797,34.603951 109.000000,18.270147 109.000000,1.468657 
	C145.020889,1.000000 181.041794,1.000000 217.531342,1.000000 
	C220.763809,3.237669 220.203262,6.414964 220.213943,9.339274 
	C220.297302,32.149162 220.250351,54.959328 220.254990,77.769402 
	C220.259705,100.912483 220.259842,124.055557 220.254044,147.198639 
	C220.251923,155.673553 220.393524,164.150772 220.037552,173.048859 
	C220.846039,175.271561 220.774948,177.059540 220.130157,178.843155 
	C217.928543,184.933289 215.592468,190.973465 213.353333,197.049911 
	C211.962875,200.823212 208.909729,202.193802 205.041504,202.108688 
	C196.887329,201.929214 188.821442,202.593658 180.756119,203.953476 
	C161.107956,207.266220 143.023285,214.289017 126.822395,225.946167 
	C123.191505,228.558731 119.372696,230.945404 116.226128,234.210571 
	C114.821106,235.668564 113.055244,236.631348 110.517052,236.455383 
z"/>
<path fill="#F8A256" opacity="1.000000" stroke="none" 
	d="
M91.468658,678.000000 
	C92.674149,672.494690 90.911812,666.895569 91.467552,661.316162 
	C92.016586,655.804016 91.523499,650.193848 91.622482,644.629150 
	C91.692444,640.696289 91.799171,636.651550 91.569168,632.845642 
	C90.865456,621.200378 91.312584,609.552063 91.315659,597.946106 
	C91.318726,586.339661 91.536446,574.665466 91.533752,563.062256 
	C91.531052,551.458557 91.330025,539.785583 91.314789,528.177979 
	C91.299545,516.572998 91.341766,504.910736 91.518806,493.289764 
	C91.642570,485.165741 91.780182,476.927124 91.234924,468.722504 
	C90.694016,460.583221 91.640045,452.355072 91.672935,444.164856 
	C91.705162,436.143433 91.319389,428.121002 91.290649,420.098419 
	C91.274345,415.548584 91.606567,410.997559 92.058823,406.172058 
	C95.837250,405.644012 97.105721,408.547546 98.802940,410.657043 
	C107.929756,422.000854 118.013657,432.289093 130.548019,439.919098 
	C141.091476,446.337189 152.002487,451.953369 163.923340,455.445648 
	C172.325012,457.906921 173.125046,459.047455 173.152313,467.706970 
	C173.201599,483.356049 173.154007,499.005249 173.173126,514.654419 
	C173.183044,522.768921 173.227966,522.691650 181.156097,522.874451 
	C185.088593,522.965149 189.168045,521.988037 193.243927,524.324829 
	C196.087570,531.132385 195.395172,537.683899 193.429291,544.569214 
	C188.594284,547.278381 183.700409,546.006165 178.971664,546.185181 
	C171.782227,546.457153 171.285477,546.763062 171.245239,553.832275 
	C171.198990,561.956360 171.196930,570.081055 171.246109,578.205139 
	C171.288574,585.218201 171.808472,585.597473 179.023346,585.794189 
	C184.132538,585.933533 189.300247,585.094238 194.715363,586.804199 
	C198.931229,592.111450 196.718613,597.983582 196.868591,603.403137 
	C197.211014,615.776184 196.970825,628.174011 197.002792,640.562439 
	C197.030533,651.306091 196.799362,662.050171 197.076096,672.794189 
	C197.119308,674.472046 196.983704,676.135071 195.297775,677.685120 
	C160.645767,678.000000 126.291542,678.000000 91.468658,678.000000 
z"/>
<path fill="#F7BE5A" opacity="1.000000" stroke="none" 
	d="
M575.531372,1.000000 
	C576.000000,74.536850 576.005066,148.073700 575.976501,221.610535 
	C575.975647,223.900787 576.494934,226.282120 574.995972,228.783478 
	C571.636047,229.878952 569.642212,227.851730 567.701477,226.141373 
	C548.580994,209.290665 526.259399,199.302933 501.279816,194.968140 
	C497.397522,194.294449 494.511902,192.526077 493.047668,188.630737 
	C489.701843,179.729782 485.412231,171.279099 480.601837,163.080414 
	C479.178589,160.654709 477.655304,158.174225 478.479492,154.677551 
	C478.997559,142.250443 478.711121,130.252930 478.731964,118.258034 
	C478.781738,89.592842 478.655518,60.926998 478.807617,32.262524 
	C478.850128,24.250185 477.196045,16.338848 477.782562,8.324598 
	C477.949402,6.044927 477.437073,3.591895 479.663513,1.354397 
	C511.687561,1.000000 543.375122,1.000000 575.531372,1.000000 
z"/>
<path fill="#F8AB57" opacity="1.000000" stroke="none" 
	d="
M219.528168,175.353104 
	C217.703125,172.729111 218.004333,169.864609 218.004044,167.050522 
	C217.998596,112.012787 218.000000,56.975052 218.000000,1.468657 
	C248.354233,1.000000 278.708466,1.000000 309.531342,1.000000 
	C312.629028,3.092332 312.119019,6.072536 312.151367,8.854365 
	C312.425995,32.465687 311.663727,56.070660 311.672791,79.681465 
	C311.674988,85.429367 312.791138,91.302361 310.343414,97.276886 
	C308.068817,101.288284 304.051666,102.036858 300.611237,103.387695 
	C267.476624,116.397568 242.392090,138.519501 225.008026,169.510590 
	C223.735153,171.779785 222.683731,174.362747 219.528168,175.353104 
z"/>
<path fill="#F7B759" opacity="1.000000" stroke="none" 
	d="
M479.531342,1.000000 
	C481.789246,49.593296 480.711548,98.206253 481.007141,146.809799 
	C481.026459,149.984695 481.079590,153.149323 479.560150,156.593018 
	C476.589203,157.270477 475.299316,155.148697 473.948395,153.314133 
	C455.253204,127.926689 430.729523,110.607666 400.987396,100.490067 
	C398.138489,99.520943 395.157806,98.740303 394.303711,94.752716 
	C393.705902,92.216827 393.759247,90.055061 393.757477,87.901482 
	C393.736084,62.029827 393.710510,36.158066 393.792450,10.286620 
	C393.801605,7.388526 393.077118,4.255223 395.661713,1.356599 
	C423.687561,1.000000 451.375122,1.000000 479.531342,1.000000 
z"/>
<path fill="#F8AA57" opacity="1.000000" stroke="none" 
	d="
M195.468658,678.000000 
	C194.384857,648.309387 194.318726,618.618713 194.998260,588.494568 
	C196.155029,585.950928 198.226959,585.866699 200.218582,585.856506 
	C232.164215,585.693176 264.110046,585.631165 296.055542,585.883606 
	C297.215057,585.892761 298.387177,585.991577 299.892426,586.781372 
	C303.219635,589.688660 303.229889,593.182495 303.236145,596.709717 
	C303.278259,620.462952 303.267334,644.216309 303.204895,667.969299 
	C303.196808,671.046936 304.414948,674.255554 302.320801,677.620850 
	C266.645782,678.000000 231.291550,678.000000 195.468658,678.000000 
z"/>
<path fill="#F7B158" opacity="1.000000" stroke="none" 
	d="
M302.468658,678.000000 
	C300.931366,673.428894 300.977142,668.784302 300.984314,664.127686 
	C301.019073,641.504578 300.996277,618.881409 301.005280,596.258301 
	C301.006287,593.759949 301.079071,591.261658 300.080505,588.465698 
	C301.028534,586.158203 302.863251,585.897827 304.718658,585.885803 
	C332.484924,585.706177 360.251373,585.547302 388.017059,585.965393 
	C388.851318,585.977905 389.665009,586.170105 390.848572,586.806763 
	C394.083282,589.959045 394.233002,593.587524 394.237366,597.305969 
	C394.263458,619.637939 394.302612,641.970337 394.185822,664.301636 
	C394.163269,668.616028 395.154144,672.881531 394.282349,677.598450 
	C363.645782,678.000000 333.291534,678.000000 302.468658,678.000000 
z"/>
<path fill="#F7B759" opacity="1.000000" stroke="none" 
	d="
M394.468658,678.000000 
	C392.105011,674.540588 391.942322,670.815857 391.957001,666.954346 
	C392.044098,644.053772 391.980530,621.152588 392.022552,598.251770 
	C392.028381,595.082825 391.880188,591.960632 391.026520,588.475830 
	C392.291046,585.768372 394.572723,585.851807 396.697418,585.839111 
	C423.226379,585.680481 449.755615,585.685425 476.284637,585.833923 
	C478.090393,585.843994 479.971008,585.820129 481.714355,587.642456 
	C481.998810,614.637085 482.017548,641.213623 481.976135,667.790161 
	C481.971191,670.963562 482.147064,674.085083 482.973511,677.579529 
	C453.645782,678.000000 424.291534,678.000000 394.468658,678.000000 
z"/>
<path fill="#F7B158" opacity="1.000000" stroke="none" 
	d="
M395.531342,1.000000 
	C395.967529,32.534843 395.935059,64.069687 395.866760,96.110779 
	C393.955688,98.338806 391.825684,97.705009 389.698883,97.315704 
	C379.264221,95.405670 368.827698,93.588768 358.182922,93.179085 
	C343.777130,92.624664 329.769379,95.038132 315.863647,98.398071 
	C313.777283,98.902184 311.705353,99.708755 309.290253,98.206558 
	C309.176270,80.982979 309.037811,64.083832 309.630463,47.210373 
	C310.160706,32.113117 309.765503,17.026407 310.000000,1.468657 
	C338.354218,1.000000 366.708466,1.000000 395.531342,1.000000 
z"/>
<path fill="#FFFFFE" opacity="1.000000" stroke="none" 
	d="
M308.646729,98.008301 
	C323.456970,93.879921 338.077911,91.027748 353.172150,90.988640 
	C367.382263,90.951828 381.286194,93.010498 395.427917,96.536575 
	C418.470062,103.304634 438.683502,114.356781 456.219177,130.213135 
	C464.877686,138.042450 472.149811,147.072464 479.156311,156.802002 
	C485.740570,167.231018 491.772339,177.574539 495.392487,189.073273 
	C496.468964,192.492477 499.101654,192.452744 501.619019,192.871567 
	C518.680237,195.710052 534.778870,201.204010 549.584778,210.232727 
	C558.384888,215.599060 566.541626,221.839539 574.424438,228.956818 
	C585.981323,241.246262 596.101929,254.270615 601.780396,269.987000 
	C616.547974,310.859558 610.180481,348.370239 582.911560,382.267151 
	C581.454407,384.078491 579.856079,385.776306 578.175293,387.832214 
	C563.649597,402.229156 547.500916,413.604858 528.509338,420.707581 
	C526.053040,421.626251 524.459167,421.576416 522.417297,419.587341 
	C509.222931,406.733765 495.857544,394.055756 482.247772,381.174622 
	C479.356567,380.593964 477.429504,379.103180 475.669952,377.246155 
	C460.768860,361.519592 444.714386,346.964447 429.140411,331.930573 
	C420.653381,323.737854 412.433228,315.212067 403.340912,307.634796 
	C397.567932,302.823730 397.389313,299.823914 402.372559,293.220581 
	C413.082031,279.029480 415.532654,263.302887 410.806366,246.421051 
	C408.428101,237.926224 403.049072,231.046494 397.214661,224.128265 
	C380.210785,205.143860 364.232849,185.754196 347.836151,166.724365 
	C343.271667,161.426895 335.972717,161.897583 333.443573,167.663452 
	C331.989685,170.977905 333.126068,173.861481 335.112488,176.513290 
	C340.007690,183.048203 345.600677,189.002045 350.856201,195.236588 
	C363.188568,209.866287 375.959534,224.121094 388.220245,238.814133 
	C392.506744,243.951035 395.682953,249.443787 394.996735,256.478790 
	C394.849915,257.983978 394.695953,259.465332 394.086090,260.854736 
	C392.306976,264.907898 389.300354,265.774139 386.366302,262.426453 
	C382.090393,257.547668 377.266998,253.185349 373.342621,247.964294 
	C367.449829,240.124359 360.817963,232.877151 354.165588,225.205826 
	C347.290710,216.861404 340.341583,209.041901 333.088898,201.024231 
	C327.516693,193.764069 321.418304,187.395828 315.924591,180.522507 
	C315.200104,179.616104 314.346527,178.810150 313.475861,178.039993 
	C310.002991,174.968079 305.967804,174.749496 302.602051,177.424835 
	C299.843781,179.617310 299.095856,184.312469 301.402344,187.866409 
	C305.388550,194.008469 310.618225,199.176437 315.297852,204.774796 
	C320.298279,210.756973 325.444397,216.617798 330.803741,222.753845 
	C338.672852,231.851379 346.292175,240.703186 354.005341,249.947281 
	C361.552704,258.335083 368.862244,266.459015 375.605255,275.056641 
	C378.983337,279.363800 378.534698,281.707123 374.298553,285.097137 
	C370.763947,287.925690 368.535736,287.452606 364.957550,283.791992 
	C361.134705,279.881104 358.210541,275.225861 354.028046,271.161926 
	C342.708496,257.592133 331.120209,244.733902 319.929840,231.532532 
	C310.891846,220.870316 301.828094,210.226761 292.597870,199.727448 
	C291.487274,198.464111 290.405579,197.266037 288.935608,196.402130 
	C285.647095,194.469513 282.437347,194.698074 279.711639,197.189453 
	C276.803009,199.848038 276.257935,203.268173 278.294495,206.716568 
	C281.615692,212.340103 286.250031,216.967239 290.489288,221.854645 
	C309.572754,243.855743 328.280334,266.179260 347.436707,288.116913 
	C348.643280,289.498657 349.772369,290.959656 350.751526,292.497101 
	C353.389313,296.638947 351.910919,299.556122 346.932373,299.978851 
	C341.018829,300.480957 335.691559,299.047516 331.320038,294.800201 
	C328.218536,291.786865 325.080383,288.809540 322.193512,285.109436 
	C307.350616,267.810486 292.771149,250.750565 278.103455,233.766434 
	C276.254791,231.625778 274.284485,229.575180 272.101837,227.776779 
	C269.448944,225.590897 264.896271,225.593399 262.366394,227.617706 
	C259.444153,229.955963 258.514313,234.184311 260.371979,237.523621 
	C262.987915,242.226028 267.070251,245.770493 270.496979,249.819901 
	C284.132874,265.933472 298.109070,281.757477 311.626923,297.973480 
	C314.184723,301.041809 317.358398,303.534332 320.117462,306.909546 
	C329.622742,314.981415 340.399445,319.031219 352.755371,320.142181 
	C363.218048,319.662903 372.369110,316.055969 381.316620,311.668549 
	C386.600769,309.077454 388.144165,309.653534 391.638977,314.387634 
	C393.597260,317.040344 394.747040,320.235657 397.488068,322.780090 
	C416.630707,351.581573 436.979950,379.085602 457.177979,406.697571 
	C464.045441,416.085785 470.355164,425.863617 477.068329,435.360626 
	C478.122437,436.851837 479.146393,438.405151 478.813354,440.754242 
	C486.014496,452.916077 494.906128,463.408234 504.697479,473.136871 
	C507.104248,475.528229 508.276794,477.902802 508.223511,481.375671 
	C508.029877,493.992157 507.923248,506.619415 508.261993,519.229736 
	C508.389862,523.989563 506.755646,525.114136 502.333008,524.939941 
	C494.542084,524.632996 486.729095,524.887390 478.461548,524.981934 
	C476.584717,526.744751 474.692383,527.119019 472.610535,527.124939 
	C457.786682,527.166687 442.962982,527.220398 428.139191,527.093201 
	C425.513275,527.070679 423.109161,526.370667 421.425934,524.325989 
	C411.129944,511.819794 399.206146,500.938416 387.350677,489.984863 
	C386.493225,489.192627 385.768738,488.273315 384.820770,487.046936 
	C376.808075,480.716553 370.032623,473.618011 363.163879,466.630859 
	C345.930481,449.100403 327.785828,432.508911 310.318298,415.220612 
	C309.966888,414.872803 309.495728,414.661987 308.738800,414.241394 
	C303.654114,409.407959 299.195221,404.458923 294.186798,400.062439 
	C290.095703,396.471222 289.726044,393.680420 293.247314,389.322357 
	C303.112274,377.113159 307.295868,363.043823 306.832977,347.588684 
	C306.302917,329.890961 299.819977,314.073883 289.287720,300.195892 
	C275.113220,281.518707 257.216522,267.545502 234.015991,260.605652 
	C226.473297,259.066864 219.300064,258.059967 211.908936,258.053101 
	C185.404221,258.028412 163.050842,275.718109 158.201614,303.041260 
	C155.159637,320.181427 157.591904,336.742035 164.785400,352.702759 
	C171.821274,368.313690 181.625137,381.840088 194.643463,392.828094 
	C205.562744,402.044464 217.780502,409.092224 232.652893,411.314056 
	C246.555939,414.531555 259.340149,411.814087 271.835754,406.530273 
	C277.857361,403.984070 279.492065,404.414398 283.106628,409.734070 
	C291.044220,421.416168 299.382843,432.817841 307.489380,444.862427 
	C324.194946,468.372650 341.740967,490.784515 357.859833,514.233704 
	C358.897156,515.742737 359.940460,517.250854 360.865601,518.829468 
	C364.098907,524.346741 362.766235,527.054871 356.455200,527.071838 
	C337.467896,527.122864 318.478149,527.448669 299.044861,526.926392 
	C287.804047,527.597839 277.001068,527.199585 266.203278,527.234314 
	C244.766068,527.303223 223.328354,527.297607 201.891190,527.211060 
	C199.139496,527.199951 196.188431,527.825867 193.370850,525.482422 
	C190.497742,525.113831 188.001007,525.115662 185.510239,524.994812 
	C180.889816,524.770691 174.856415,526.963867 172.016144,524.160461 
	C168.933609,521.117981 171.089233,515.006470 171.046219,510.247131 
	C170.907852,494.934601 170.882339,479.618622 171.079544,464.307373 
	C171.124283,460.833984 170.059006,459.459991 166.697708,458.505920 
	C135.977127,449.785828 111.203712,432.549042 92.595428,406.089600 
	C85.098091,393.919403 78.111565,381.806488 74.621590,368.091766 
	C62.724396,321.338745 71.795769,279.497894 104.072716,243.145264 
	C105.949760,241.031143 107.890335,238.973450 109.963821,236.612274 
	C119.442558,227.999191 129.515060,220.745621 140.604584,214.928879 
	C160.898727,204.284103 182.576431,199.559036 205.395294,199.987686 
	C208.914932,200.053802 210.657242,199.223572 211.765015,195.634506 
	C213.816559,188.987640 216.553833,182.552414 219.082825,175.686447 
	C226.720123,161.638992 235.089844,148.564758 246.030655,137.175735 
	C263.564301,118.923798 284.550171,106.382622 308.646729,98.008301 
z"/>
<path fill="#FFFEFD" opacity="1.000000" stroke="none" 
	d="
M482.462097,587.985962 
	C451.974152,588.009644 421.950104,587.958862 391.462341,587.983521 
	C360.974304,588.008301 330.949951,587.957520 300.462097,587.983215 
	C265.307190,588.008118 230.615875,587.956604 195.461151,587.983032 
	C187.688263,587.992371 180.376556,587.792969 173.070251,587.915527 
	C169.870361,587.969238 168.718246,587.008240 168.767975,583.674805 
	C168.943939,571.875916 168.941177,560.071289 168.770523,548.272278 
	C168.721848,544.907104 169.959381,543.999817 173.123795,544.087280 
	C179.434402,544.261719 185.754181,544.104919 192.533875,544.012146 
	C194.276733,542.446899 195.937866,541.866516 197.860123,541.863953 
	C231.548889,541.818970 265.238708,541.345398 299.421082,542.102905 
	C327.610962,541.460327 355.306122,541.634705 383.496887,542.006104 
	C413.509094,541.437927 443.028259,541.834778 472.546387,541.804565 
	C474.561676,541.802490 476.521637,542.086487 478.606262,543.630310 
	C487.961884,544.008972 496.928955,544.193970 505.892578,544.086487 
	C509.101929,544.048096 510.255859,545.027039 510.210938,548.332520 
	C510.050812,560.124268 510.047028,571.920898 510.212280,583.712524 
	C510.259399,587.071716 509.002625,587.971863 505.847076,587.908386 
	C498.209808,587.754944 490.566681,587.891663 482.462097,587.985962 
z"/>
<path fill="#F7B75A" opacity="1.000000" stroke="none" 
	d="
M479.106995,440.885132 
	C461.329559,416.747986 443.826843,392.431122 426.479767,368.003754 
	C416.453033,353.884521 406.677185,339.587097 396.761841,325.042480 
	C395.078979,320.637360 394.705322,316.393433 394.704376,312.014771 
	C394.698456,285.219788 394.867950,258.424957 394.805420,231.629745 
	C394.798340,228.594635 394.025299,225.156708 397.725708,222.789658 
	C419.697632,243.547989 421.248993,274.907288 401.569916,297.286743 
	C398.493317,300.785522 400.671814,302.064148 402.695129,303.963837 
	C428.195862,327.906525 453.516785,352.035095 478.162170,376.863068 
	C479.335083,378.044678 480.491119,379.243011 481.801147,380.731293 
	C480.587280,382.782166 481.019592,384.845917 481.016083,386.802460 
	C480.987457,402.753021 481.014252,418.703735 480.982452,434.654297 
	C480.978271,436.756195 481.487946,439.051392 479.106995,440.885132 
z"/>
<path fill="#F7B659" opacity="1.000000" stroke="none" 
	d="
M478.912170,543.567383 
	C447.639526,543.990479 416.282898,544.041565 384.462494,544.018188 
	C381.539185,541.803284 380.911102,538.954224 380.915924,535.879517 
	C380.938202,521.645447 380.863800,507.410736 380.973267,493.177673 
	C380.996399,490.170135 380.537415,486.688538 384.538879,484.961700 
	C397.481628,496.164124 410.041565,507.287354 420.637878,520.348145 
	C423.270386,523.592834 425.932800,525.039062 430.246216,524.964661 
	C445.849670,524.695435 461.461182,524.893799 477.533752,524.986389 
	C477.124512,531.155823 475.542084,537.286987 478.912170,543.567383 
z"/>
<path fill="#F8AA57" opacity="1.000000" stroke="none" 
	d="
M300.254700,543.661621 
	C271.944305,544.011780 243.891098,544.089233 215.837845,544.146667 
	C208.533447,544.161621 201.228912,544.114136 193.461014,544.017334 
	C192.284119,537.923401 192.832306,531.897522 192.924438,525.521606 
	C228.349350,525.127197 263.706909,525.087036 299.529358,525.106628 
	C303.157043,531.153076 302.372681,537.252014 300.254700,543.661621 
z"/>
<path fill="#F8AB58" opacity="1.000000" stroke="none" 
	d="
M306.564240,446.208069 
	C297.036407,434.502075 289.051270,422.259583 280.890167,410.151703 
	C278.673462,406.862976 277.226013,405.949799 273.197205,408.052582 
	C260.750671,414.548920 247.354172,416.248352 233.099884,413.759613 
	C229.640976,408.372650 231.396179,402.552826 231.227570,397.068573 
	C230.939240,387.689514 230.970413,378.262054 231.175995,368.875000 
	C231.356705,360.623322 231.306107,352.359070 231.337265,344.119354 
	C231.368393,335.885010 231.271027,327.611847 231.231842,319.370514 
	C231.192688,311.130646 231.236832,302.862915 231.331390,294.612000 
	C231.423996,286.533051 231.556320,278.431152 231.206314,270.348938 
	C231.038498,266.473938 231.220032,262.753754 233.683060,259.100189 
	C242.039337,260.113007 249.268600,263.608551 256.107391,267.675598 
	C281.915710,283.023773 300.477356,304.291534 307.226013,334.142700 
	C311.988068,355.206512 308.273956,374.878265 293.953278,391.731842 
	C291.648407,394.444366 292.420380,395.729095 294.586456,397.700287 
	C299.753662,402.402496 304.733948,407.310028 309.951752,412.416138 
	C312.785950,417.441925 312.234375,422.647186 312.238312,427.763702 
	C312.241760,432.238678 312.435638,436.723236 312.037262,441.185547 
	C311.769653,444.183167 310.897308,446.822296 306.564240,446.208069 
z"/>
<path fill="#F8A657" opacity="1.000000" stroke="none" 
	d="
M233.689178,258.628052 
	C233.728714,271.768188 232.844711,284.732697 233.388550,297.637024 
	C233.733444,305.821228 233.593658,314.018799 233.653122,322.169373 
	C233.713684,330.475616 233.541107,338.874573 233.509140,347.190918 
	C233.477844,355.331177 233.336823,363.532410 233.750290,371.714661 
	C234.170273,380.025848 233.150543,388.403778 233.427338,396.730347 
	C233.607635,402.154266 233.500793,407.513702 232.874741,413.265564 
	C212.472885,410.162598 196.357285,399.544067 182.897964,384.528107 
	C163.803711,363.225433 152.997177,338.721222 154.958359,309.579498 
	C157.126053,277.369415 182.872284,254.436234 215.179474,255.684586 
	C221.353821,255.923157 227.418930,256.766785 233.689178,258.628052 
z"/>
<path fill="#F7B159" opacity="1.000000" stroke="none" 
	d="
M306.223297,446.281372 
	C309.993256,445.746002 309.947723,442.842865 309.972382,440.161621 
	C310.053497,431.334229 310.038239,422.505981 310.086914,413.187836 
	C324.826019,426.715332 339.582611,440.686890 354.235199,454.766632 
	C364.446564,464.578735 374.515289,474.539246 384.804260,484.727051 
	C382.254425,487.908203 383.346344,491.628632 383.136078,494.910461 
	C382.706940,501.607544 382.697723,508.369293 383.083496,515.071716 
	C383.621002,524.410400 382.274872,533.803955 383.997559,543.519043 
	C356.307404,543.994202 328.616058,544.044617 300.461121,544.018372 
	C299.305389,537.934326 299.402496,531.926453 299.990906,525.542358 
	C320.402985,525.166382 340.811707,525.166382 362.471741,525.166382 
	C344.553864,497.458099 324.169220,472.923309 306.223297,446.281372 
z"/>
<path fill="#F7B25A" opacity="1.000000" stroke="none" 
	d="
M398.074402,222.337555 
	C396.781128,225.066788 397.003113,227.755341 396.999512,230.410110 
	C396.957336,261.496643 396.913910,292.583160 396.803070,324.192383 
	C393.447266,321.794617 391.477814,317.880676 389.046967,314.330872 
	C387.442963,311.988556 386.451294,310.905518 383.305725,312.815430 
	C374.323334,318.269226 364.727631,322.288696 353.436646,321.882812 
	C352.388641,321.199707 352.009491,320.451660 352.097992,319.585205 
	C353.553436,305.335907 352.454102,291.046356 352.804382,276.780579 
	C352.860382,274.500610 352.484497,272.067108 354.720428,269.909882 
	C359.303680,274.363678 363.632538,278.939880 367.577698,283.825897 
	C369.987579,286.810486 371.571320,285.085175 373.018768,283.294830 
	C374.317627,281.688324 378.355164,281.147369 374.982666,277.404144 
	C367.450989,269.044617 360.329407,260.315643 352.904236,251.425293 
	C352.829193,244.236588 352.659241,237.358582 352.816681,230.483154 
	C352.868134,228.235275 352.502930,225.830490 354.775146,223.753815 
	C362.634247,231.784225 369.999390,240.092133 376.771667,248.946243 
	C380.764984,254.167175 385.710815,258.659515 390.528351,263.799713 
	C394.335541,256.184692 393.736908,249.202911 388.799896,243.001404 
	C382.287964,234.821609 375.285522,227.032135 368.488556,219.079468 
	C356.924622,205.549362 345.296631,192.073349 333.818665,178.470703 
	C329.024689,172.789261 329.238281,167.016144 333.982605,163.006577 
	C338.490173,159.197098 344.918884,160.111465 349.392639,165.326859 
	C365.594879,184.214844 381.760895,203.133896 398.074402,222.337555 
z"/>
<path fill="#F8B15A" opacity="1.000000" stroke="none" 
	d="
M355.012268,269.358978 
	C355.091064,284.274597 354.999237,298.892487 355.040863,313.510040 
	C355.048676,316.252960 354.662018,318.772400 353.094727,321.454041 
	C340.078308,321.774902 328.915497,317.173187 319.060913,308.473938 
	C318.628937,301.928894 319.699219,295.700897 319.179535,289.421295 
	C318.984406,287.063690 319.953064,284.824982 322.825134,283.655945 
	C325.832947,286.393982 328.450562,289.176636 331.041901,291.983490 
	C335.419189,296.724792 340.851837,298.663361 347.220367,298.073395 
	C348.494781,297.955322 350.174591,298.437347 350.861053,297.051941 
	C351.707611,295.343536 349.981689,294.378571 349.080688,293.322357 
	C338.927979,281.420471 328.724823,269.561676 318.540985,257.686310 
	C305.323730,242.273682 292.128723,226.841873 278.885284,211.451767 
	C275.651733,207.694092 273.537109,203.667236 275.798981,198.718414 
	C279.068298,191.565384 287.871185,190.907608 293.505035,197.414017 
	C302.872101,208.231827 312.137787,219.137436 321.445526,230.006607 
	C332.593292,243.024490 343.740417,256.042938 355.012268,269.358978 
z"/>
<path fill="#F8AD59" opacity="1.000000" stroke="none" 
	d="
M323.099609,283.300964 
	C319.526459,289.329071 321.936310,295.686584 321.621094,301.723389 
	C321.489746,304.238861 321.531433,306.167725 319.135956,307.907654 
	C309.539124,300.095032 302.456940,289.960632 294.351349,280.750061 
	C283.253082,268.138885 272.414062,255.299561 261.460175,242.561234 
	C259.608826,240.408279 257.665588,238.251602 257.354034,235.299393 
	C256.876129,230.770996 258.503540,227.104584 262.521912,224.787247 
	C266.298523,222.609314 271.460938,223.398956 274.807434,227.040451 
	C280.094482,232.793503 285.113464,238.794342 290.203705,244.726501 
	C301.140778,257.472565 312.050903,270.241760 323.099609,283.300964 
z"/>
<path fill="#F8B05A" opacity="1.000000" stroke="none" 
	d="
M330.046204,224.279907 
	C319.845001,212.879990 309.947449,201.674973 300.329681,190.234741 
	C296.322266,185.467957 296.880829,179.496445 300.994080,175.930481 
	C305.464203,172.055145 311.239655,172.380661 315.583374,177.223755 
	C321.903564,184.270538 327.944214,191.568008 334.253967,199.044891 
	C334.636536,205.785446 334.695251,212.244110 334.749481,218.700470 
	C334.773254,221.530609 333.948669,224.043411 330.046204,224.279907 
z"/>
<path fill="#F8B15A" opacity="1.000000" stroke="none" 
	d="
M329.790497,224.482971 
	C332.348633,222.789444 332.515289,220.705933 332.639740,217.707855 
	C332.883026,211.845490 330.344513,205.681870 334.179016,199.704865 
	C341.248901,207.201553 348.093933,215.071884 355.065521,223.231903 
	C355.127808,230.753281 355.075195,237.985077 354.991486,245.216522 
	C354.969025,247.158157 355.313171,249.230209 353.107605,250.886948 
	C345.162262,242.337646 337.556793,233.561829 329.790497,224.482971 
z"/>
</svg>