<svg version="1.1" id="Layer_1" xmlns="http://www.w3.org/2000/svg" xmlns:xlink="http://www.w3.org/1999/xlink" x="0px" y="0px"
	 width="100%" viewBox="0 0 672 672" enable-background="new 0 0 672 672" xml:space="preserve">
<path fill="#F6C45B" opacity="1.000000" stroke="none" 
	d="
M672.756409,299.698456 
	C673.000000,324.354218 673.000000,348.708466 673.000000,373.531342 
	C671.093140,378.910736 671.944580,384.119080 671.368164,389.173737 
	C669.687073,403.916046 666.097107,418.261841 661.958435,432.448364 
	C649.460938,475.287109 628.936707,514.009460 601.255005,548.938354 
	C596.413086,555.047852 591.468201,561.126526 585.906250,566.633545 
	C584.016724,568.504395 582.090881,570.520630 578.613281,569.083984 
	C576.736877,567.195251 576.827637,565.126465 576.824341,563.153931 
	C576.728699,506.201996 576.637390,449.249969 576.856445,392.298035 
	C576.857727,391.966248 576.913696,391.634735 576.946472,390.860077 
	C575.997864,386.254150 578.504883,383.382812 580.894287,380.665344 
	C611.156494,346.247528 615.458740,293.765808 592.446167,255.514465 
	C588.214478,248.480560 583.127258,242.182755 578.122986,235.775986 
	C576.646667,233.885895 575.291931,232.077103 575.438110,229.103333 
	C574.921814,226.207321 574.743591,223.729446 574.744019,221.226120 
	C574.750305,185.470581 574.715271,149.714996 574.790649,113.959579 
	C574.797180,110.862923 574.239807,107.576187 576.785767,104.541351 
	C580.504761,102.048195 582.817932,104.233078 584.916443,106.393257 
	C593.271545,114.993484 600.731934,124.345093 607.965393,133.900269 
	C629.757080,162.686646 646.321899,194.286880 657.829102,228.413620 
	C665.371704,250.782410 671.636292,273.571747 672.030640,297.484833 
	C672.041748,298.160858 672.180786,298.802765 672.756409,299.698456 
z"/>
<path fill="#000000" opacity="1.000000" stroke="none" 
	d="
M300.219421,672.634033 
	C201.738632,673.000000 103.477219,672.973145 5.216028,673.104309 
	C1.526560,673.109253 0.905108,672.241638 0.909178,668.721985 
	C1.022411,570.793823 1.000000,472.865570 1.000000,374.468658 
	C5.035183,372.942383 4.749570,376.097046 5.091150,378.368683 
	C7.118665,391.852570 9.603671,405.231415 12.911618,418.476715 
	C25.090883,467.243469 47.405933,510.854248 79.209747,549.684265 
	C80.065598,550.729187 80.718010,551.869141 81.594772,553.311035 
	C88.678940,561.080383 95.800972,568.299255 102.943909,575.505005 
	C121.087807,593.808350 141.337860,609.372681 163.724213,622.803833 
	C181.889587,633.711548 200.540909,642.791992 220.032593,650.147949 
	C228.730286,653.430420 237.606125,656.179932 246.805450,659.156006 
	C263.452423,662.976868 279.705719,666.762268 296.285370,668.914368 
	C298.315765,669.177856 300.282074,669.631836 300.219421,672.634033 
z"/>
<path fill="#000000" opacity="1.000000" stroke="none" 
	d="
M1.317347,300.220276 
	C1.000000,201.738632 1.026837,103.477219 0.895707,5.216028 
	C0.890783,1.526565 1.758360,0.905109 5.277996,0.909178 
	C103.206131,1.022407 201.134415,1.000000 299.531342,1.000000 
	C301.075409,4.610469 298.295135,4.723029 296.109222,5.084516 
	C287.259308,6.548049 278.386536,7.847021 269.597382,9.691182 
	C258.196472,12.083361 246.980621,15.160913 235.391144,18.388664 
	C222.026993,23.008612 209.117844,27.723259 196.670990,33.615463 
	C181.966599,40.576351 167.735199,48.399815 153.575775,57.114616 
	C141.215332,66.163750 128.884323,74.640358 117.688560,84.639526 
	C104.387527,96.518967 91.899773,109.171349 79.961563,122.900299 
	C53.522137,155.765808 33.097569,191.569092 19.838406,231.303162 
	C12.875932,252.167770 8.201580,273.588226 5.143916,295.364685 
	C4.825613,297.631622 4.960958,300.240570 1.317347,300.220276 
z"/>
<path fill="#000000" opacity="1.000000" stroke="none" 
	d="
M673.000000,299.531342 
	C671.347473,300.977478 671.136414,299.606384 671.066467,298.630524 
	C669.784546,280.743500 665.489807,263.435120 660.988342,246.173538 
	C657.406799,232.439407 652.583801,219.108658 646.966980,206.097717 
	C637.446777,184.044922 626.152161,162.961105 612.104065,143.392426 
	C602.176697,129.563812 591.805786,116.133141 579.350586,104.018219 
	C576.329834,104.164940 574.775330,102.284554 573.173645,100.630699 
	C552.073547,78.843513 527.847351,61.158512 501.700562,45.966221 
	C497.962280,43.794144 493.923004,42.179741 490.017914,39.555168 
	C479.761963,35.227161 470.259338,30.140381 460.216492,26.226620 
	C444.143372,19.962824 427.730286,14.844915 410.903564,11.065633 
	C408.167847,10.451191 405.562103,9.325507 402.332886,9.100002 
	C394.045990,7.586111 386.107574,6.411703 378.181702,5.162264 
	C376.053772,4.826812 373.817139,4.636121 373.781128,1.378933 
	C472.261353,1.000000 570.522766,1.026835 668.783936,0.895718 
	C672.473267,0.890795 673.094910,1.758158 673.090820,5.277941 
	C672.977600,103.206093 673.000000,201.134399 673.000000,299.531342 
z"/>
<path fill="#000000" opacity="1.000000" stroke="none" 
	d="
M579.770996,569.179382 
	C591.319885,559.072388 600.041016,546.959900 608.956055,535.044128 
	C622.603271,516.803406 633.719055,497.044556 643.211609,476.367493 
	C653.483643,453.992462 661.187378,430.779633 666.064819,406.613892 
	C668.157959,396.243073 670.462341,385.932922 671.089783,375.332367 
	C671.130920,374.638123 671.899780,373.986969 672.665039,373.657898 
	C673.000000,472.261383 672.973145,570.522827 673.104309,668.783997 
	C673.109192,672.473450 672.241638,673.094910 668.721985,673.090820 
	C570.793823,672.977600 472.865570,673.000000 374.468658,673.000000 
	C372.980560,669.440308 375.672302,669.302368 377.893829,668.894104 
	C383.928711,667.784912 390.032013,667.097351 396.488342,666.044678 
	C425.993652,660.110779 454.303802,651.778137 480.994537,638.501160 
	C486.062683,635.980042 491.116211,633.429810 496.533203,630.770508 
	C510.354187,623.450195 523.080811,615.100525 535.380676,606.078491 
	C549.051697,596.050659 561.960449,585.149109 573.674011,572.863770 
	C575.269043,571.190857 576.836060,569.387146 579.770996,569.179382 
z"/>
<path fill="#F99B54" opacity="1.000000" stroke="none" 
	d="
M1.000000,300.468658 
	C3.266089,301.078888 2.893543,299.173279 2.966228,298.124237 
	C4.219461,280.037567 8.628716,262.521759 13.190845,245.109772 
	C16.665314,231.848969 21.472609,218.938477 26.946692,206.322556 
	C36.534950,184.224854 47.716385,163.014328 61.883263,143.462601 
	C67.134460,136.215424 72.068100,128.722900 78.583595,122.081139 
	C81.413803,121.931274 81.750626,123.824654 82.011101,125.650162 
	C82.340218,127.956711 82.250122,130.294083 82.250710,132.620087 
	C82.261742,176.492569 82.243637,220.365051 82.282234,264.237488 
	C82.284569,266.890198 81.803658,269.534943 82.421936,272.580566 
	C83.904396,275.299286 83.123528,277.469666 82.206001,279.668396 
	C73.778526,299.864044 70.540062,320.939545 72.330681,342.676453 
	C73.356491,355.129028 75.901772,367.354279 80.979568,378.910217 
	C82.115288,381.494934 83.281181,384.082550 83.528915,387.373291 
	C83.220016,389.241730 82.303505,390.625977 82.949104,392.156921 
	C86.855057,401.419067 84.505035,411.134552 84.848671,420.625031 
	C85.267105,432.181519 84.939644,443.769318 84.951469,455.343689 
	C84.963470,467.096802 84.947250,478.850037 84.946548,490.603210 
	C84.945847,502.175568 84.897217,513.747925 84.951508,525.320374 
	C84.989571,533.434143 84.818810,541.547729 85.021446,549.662537 
	C85.082253,552.097717 84.404961,554.306824 81.304886,555.129028 
	C67.220345,539.313782 55.327755,522.316101 45.053879,504.202057 
	C33.524529,483.874481 23.809078,462.711761 16.788067,440.389496 
	C10.948217,421.822540 6.387972,402.970367 3.736390,383.629791 
	C3.278540,380.290283 4.489859,376.286621 1.339203,373.660278 
	C1.000000,349.645782 1.000000,325.291534 1.000000,300.468658 
z"/>
<path fill="#F8AB57" opacity="1.000000" stroke="none" 
	d="
M233.681732,17.206678 
	C249.978668,11.367552 266.460571,7.828972 283.120056,4.834835 
	C288.957825,3.785641 295.119171,4.368526 300.329468,1.346161 
	C305.354919,1.000000 310.709869,1.000000 316.532410,1.000000 
	C319.172546,2.708671 319.536346,4.999253 319.552765,7.640594 
	C319.721191,34.768661 319.521820,61.896534 319.595123,89.024254 
	C319.600677,91.085518 318.867737,92.911476 318.051941,95.117630 
	C316.329712,97.386566 314.067352,98.044846 311.857086,98.740990 
	C287.353424,106.458618 266.015808,119.377205 247.932907,137.636856 
	C244.782898,140.817657 242.303711,144.604095 238.944733,147.611633 
	C237.422272,148.974808 235.994904,150.338669 233.356415,149.600739 
	C230.278946,145.033768 231.410553,140.119766 231.405487,135.472183 
	C231.396500,127.222069 231.337357,118.966011 231.466629,110.711052 
	C231.603439,101.976425 231.423584,93.232910 231.468964,84.491348 
	C231.510117,76.564430 231.474075,68.635971 231.488052,60.708012 
	C231.503738,51.803642 231.270844,42.900017 231.558914,33.993961 
	C231.686996,30.034832 230.821991,26.074177 231.765594,22.098995 
	C232.147827,20.488710 232.062241,18.772484 233.681732,17.206678 
z"/>
<path fill="#F7B258" opacity="1.000000" stroke="none" 
	d="
M317.285767,95.269302 
	C317.915619,76.178917 317.209045,57.436867 317.370544,38.700699 
	C317.462616,28.019026 317.253723,17.334297 317.402985,6.654057 
	C317.426575,4.964704 317.140747,3.376503 317.017395,1.369722 
	C335.687561,1.000000 354.375122,1.000000 373.531342,1.000000 
	C373.507324,3.741370 375.630859,2.871326 376.866577,2.972418 
	C385.410828,3.671400 393.823090,5.167028 402.591522,7.091538 
	C405.410889,8.834052 406.200165,11.179187 406.207306,14.041030 
	C406.270599,39.441608 406.306793,64.842018 406.174805,90.242485 
	C406.163422,92.432152 405.868622,94.544846 404.410309,96.843552 
	C401.431946,99.714897 398.337372,99.225975 395.223785,98.386375 
	C379.900787,94.254471 364.322083,92.608330 348.458252,93.173141 
	C340.821075,93.445053 333.266144,94.041100 325.783417,95.658401 
	C323.100464,96.238281 320.299316,97.288330 317.285767,95.269302 
z"/>
<path fill="#F7B258" opacity="1.000000" stroke="none" 
	d="
M398.349121,667.484375 
	C390.663849,669.216431 383.354156,670.812866 375.848053,670.988770 
	C374.721924,671.015137 373.984772,671.520142 373.666504,672.657593 
	C355.979095,673.000000 337.958221,673.000000 319.468658,673.000000 
	C316.748657,671.141296 316.196838,668.653748 316.190552,665.871704 
	C316.136200,641.832031 316.121490,617.792358 316.219360,593.752869 
	C316.231812,590.700806 316.857056,587.814392 319.757324,585.496582 
	C322.584290,584.645630 325.084045,584.767883 327.563538,584.763611 
	C348.789520,584.727234 370.015625,584.717590 391.241516,584.775269 
	C394.029602,584.782898 396.901520,584.412781 399.946472,586.055359 
	C401.374817,587.566772 401.651733,588.960571 401.597778,590.531128 
	C400.820679,613.140686 401.476288,635.758606 401.225494,658.371460 
	C401.190582,661.519470 401.444092,664.764099 398.349121,667.484375 
z"/>
<path fill="#F8AC57" opacity="1.000000" stroke="none" 
	d="
M318.809631,587.052856 
	C317.610138,602.761597 318.707428,618.046936 318.365082,633.313599 
	C318.122253,644.144348 318.558380,654.989502 318.381378,665.823181 
	C318.345154,668.038147 319.168762,670.054810 318.995117,672.605225 
	C312.978851,673.000000 306.957703,673.000000 300.468262,673.000000 
	C301.026825,670.753906 299.134644,671.109985 298.099670,671.038147 
	C281.219055,669.865356 264.933380,665.519775 248.533112,661.789856 
	C247.922913,661.651062 247.369125,661.264282 246.395676,660.913452 
	C243.786057,658.959534 243.240936,656.486328 243.236816,653.707153 
	C243.208435,634.541565 243.290298,615.375854 243.250656,596.210144 
	C243.242889,592.457458 243.094589,588.491516 246.834381,585.474121 
	C252.180847,584.360046 257.188171,584.777283 262.171753,584.763306 
	C278.491547,584.717651 294.811829,584.679626 311.131226,584.798218 
	C313.711975,584.816956 316.551636,584.240479 318.809631,587.052856 
z"/>
<path fill="#FFFFFE" opacity="1.000000" stroke="none" 
	d="
M316.647430,95.068710 
	C330.170654,92.250206 343.407257,90.505798 356.915436,90.596252 
	C372.322510,90.699432 387.125000,94.045120 402.321503,97.821548 
	C405.103851,97.007866 407.333344,97.642319 409.532990,98.501366 
	C442.336029,111.311989 467.738861,132.876785 485.895905,163.026489 
	C486.671600,164.314484 486.951569,165.840240 488.143860,167.316986 
	C491.774536,172.596756 494.260437,178.080994 495.911438,183.809021 
	C497.232788,188.393402 500.059052,190.126678 504.377838,190.801697 
	C518.100342,192.946487 531.112122,197.270813 543.423462,203.746597 
	C552.864685,208.712708 561.697449,214.554932 569.847595,221.430878 
	C572.661255,223.804672 575.158813,226.444611 576.737854,230.257751 
	C585.585815,241.113052 593.790955,251.897278 599.697083,264.393341 
	C617.121826,301.260376 610.384521,350.494385 583.384094,381.143005 
	C581.403809,383.390839 579.449951,385.661926 577.278870,388.204956 
	C577.617859,391.237061 575.794739,392.840942 574.067383,394.376129 
	C561.824707,405.256683 548.260681,414.063660 533.237305,420.670532 
	C527.088562,423.374573 522.169312,422.622894 517.695801,417.403290 
	C515.779724,415.167694 514.132629,412.609589 511.353149,410.679810 
	C501.202057,401.845093 491.538025,392.995636 482.263184,383.732391 
	C467.453278,368.940979 452.654877,354.138000 437.862762,339.328766 
	C434.114807,335.576447 429.435822,332.810669 426.068115,328.141602 
	C419.761963,321.697388 412.816925,316.524200 406.332855,310.824005 
	C404.834808,309.507050 403.547882,307.962372 402.325592,306.372772 
	C397.605621,300.234558 397.585419,299.177521 402.156738,292.846497 
	C418.303497,270.484100 416.519196,244.952637 397.933289,224.411667 
	C383.760254,208.747772 370.280457,192.465210 356.574554,176.386566 
	C353.344543,172.597366 350.358185,168.557327 346.605042,165.225189 
	C342.653503,161.716888 338.713898,161.402588 335.417633,164.308060 
	C332.032166,167.292160 331.559387,171.128189 334.764465,175.433609 
	C341.024994,183.843414 348.192139,191.517471 355.007935,199.475281 
	C366.802246,213.245773 378.967926,226.707428 390.222656,240.925903 
	C394.658020,246.529236 396.355774,253.120102 393.888458,260.206451 
	C392.210846,265.024719 389.891144,265.573120 386.388611,261.896912 
	C378.464325,253.579803 371.255707,244.627182 363.789948,235.907959 
	C350.375305,220.241089 336.794434,204.717514 323.441620,188.997528 
	C320.533630,185.574020 317.680786,182.099319 314.591217,178.828033 
	C310.808899,174.823212 306.211182,174.114609 302.673706,177.097916 
	C299.241791,179.992172 299.156525,184.838547 302.681030,189.147644 
	C311.950317,200.480362 321.623138,211.473343 331.158020,222.580399 
	C345.678894,239.495621 360.136719,256.465149 374.697937,273.345978 
	C378.184967,277.388458 378.114227,281.034821 374.897400,283.930359 
	C371.388428,287.088837 367.970581,286.663605 364.106262,282.463440 
	C360.959900,279.043640 358.319519,275.199097 354.958862,271.499146 
	C340.746643,255.400589 327.221466,239.172989 313.283752,223.300552 
	C305.821014,214.801926 298.859222,205.859070 291.046570,197.676834 
	C286.689453,193.113617 280.902405,193.878601 278.186401,198.992035 
	C276.500549,202.166031 277.217499,205.094223 279.265472,207.853821 
	C283.732391,213.872925 288.838654,219.359528 293.689911,225.052994 
	C309.224304,243.284134 324.915375,261.381409 340.438568,279.623047 
	C343.561584,283.292908 346.769379,286.903687 349.943359,290.536896 
	C351.527588,292.350311 352.818512,294.369995 351.740540,296.877716 
	C350.672302,299.362793 348.367615,299.893616 345.939545,300.006744 
	C339.629486,300.300690 334.097046,298.751373 329.946655,293.560547 
	C328.816345,292.146881 327.959167,290.458221 326.097260,289.199463 
	C312.744720,273.491882 299.456360,258.191589 286.320160,242.761490 
	C282.875061,238.714767 279.182312,234.881882 275.923279,230.676926 
	C275.309723,229.885269 274.619202,229.166931 273.899567,228.476212 
	C270.067688,224.798233 265.570343,224.294769 262.290131,227.168777 
	C258.815735,230.212997 258.556091,235.000778 261.900238,239.220261 
	C265.200684,243.384598 268.754150,247.347260 272.210907,251.385284 
	C286.577667,268.167969 301.065338,284.847015 315.297852,301.744843 
	C318.539154,305.593109 322.725647,308.367554 326.971863,311.594788 
	C334.858307,315.522430 342.708740,318.367676 351.563721,319.231628 
	C359.020081,319.568054 365.896454,318.439972 372.458832,315.741394 
	C375.368500,314.544861 378.113464,312.958069 380.905182,311.491302 
	C385.979736,308.825195 388.226868,309.337952 391.799561,314.324463 
	C400.875610,326.992249 409.393250,340.053375 418.702759,352.558655 
	C420.679688,355.214233 422.671082,357.872589 424.423584,361.144470 
	C440.062714,382.942200 456.249939,403.868805 470.953308,425.863159 
	C481.775665,442.051971 493.056610,457.895630 506.577179,471.998077 
	C509.039856,474.566803 510.066620,477.461853 510.038055,481.013550 
	C509.937500,493.503143 510.033417,505.994232 509.983276,518.484497 
	C509.959869,524.314453 508.390625,526.036560 502.621124,526.074097 
	C492.466797,526.140137 482.307068,526.457764 471.734192,525.879517 
	C456.721771,526.526733 442.126770,526.139465 427.533051,526.117798 
	C424.055695,526.112671 421.563873,524.371094 419.419617,521.927795 
	C417.671448,519.935730 416.162659,517.739746 414.069763,515.513672 
	C405.019806,504.291779 394.023010,495.632141 383.891113,486.089233 
	C380.504456,482.899384 377.175873,479.656555 373.903320,476.356689 
	C361.160034,463.506744 348.309723,450.765533 334.968170,438.535675 
	C332.431244,436.210175 331.272217,432.480957 327.253998,431.211792 
	C315.654999,420.697571 304.316406,410.403412 293.781891,399.278381 
	C290.198914,395.494537 290.034698,393.440369 293.218506,389.196381 
	C303.212952,375.873871 308.102753,360.923676 306.769287,344.344788 
	C305.357117,326.787018 298.332916,311.248260 287.668152,297.377869 
	C275.646240,281.742432 260.290985,270.366547 241.815781,262.590363 
	C231.904739,260.531952 222.648773,257.098267 212.712296,257.127350 
	C186.794159,257.203217 165.482285,273.646576 159.132507,298.797211 
	C154.651367,316.546478 157.036957,333.781036 164.038177,350.438599 
	C173.757889,373.564056 189.154984,391.778473 211.469574,403.688812 
	C220.973190,408.761353 231.274857,411.302582 242.378738,412.163025 
	C253.614334,412.535400 263.721863,409.600006 273.526154,405.243744 
	C277.672028,403.401642 280.486633,405.366882 282.780975,408.728088 
	C289.978516,419.272339 297.326355,429.711945 304.667480,440.156738 
	C311.818787,450.331421 319.297546,460.270599 326.379456,470.496307 
	C327.598999,472.257263 328.168304,474.436462 330.161438,476.129669 
	C340.303314,489.172333 349.980225,502.078278 358.996948,515.467346 
	C359.742340,516.574158 360.481354,517.695129 361.045532,518.892822 
	C363.020966,523.086426 361.560822,525.707153 356.852875,525.999329 
	C351.369019,526.339661 345.866302,526.179688 339.930725,526.012695 
	C313.674347,526.397583 287.859833,526.408264 261.564941,526.096741 
	C247.769394,526.217957 234.453156,526.500916 220.660706,525.979614 
	C205.731308,526.531067 191.276550,526.256653 176.825211,526.148560 
	C170.464966,526.100891 168.930008,524.502930 168.840530,518.029480 
	C168.615463,501.748474 168.806808,485.465027 168.737915,469.182709 
	C168.725311,466.204773 168.950912,463.152588 166.587372,460.327728 
	C144.222687,454.001801 124.900764,443.282806 108.511879,427.167480 
	C100.160530,418.955536 92.641823,410.206116 86.739525,400.086182 
	C84.646881,396.498199 82.578621,392.908478 82.120049,388.300629 
	C72.606575,367.268860 68.722000,345.580566 69.824928,322.857300 
	C70.645721,305.946960 75.331741,290.126587 82.193512,274.434448 
	C81.359711,272.019287 82.055840,270.170044 83.034622,268.377411 
	C92.642868,250.779938 105.298416,235.787994 121.438187,223.842316 
	C130.397217,217.211395 139.760864,211.234039 150.720612,207.365845 
	C164.340912,201.692276 178.120651,198.475479 192.506866,197.767258 
	C196.632401,197.564178 200.715866,196.625488 204.880142,196.795715 
	C208.316513,196.936172 209.226974,194.510376 210.163956,191.874603 
	C214.904236,178.540314 220.786865,165.767120 228.915756,154.104492 
	C230.269531,152.162216 231.674133,150.369980 234.309631,149.424469 
	C247.746384,133.702271 262.441650,119.913460 280.477875,109.955879 
	C291.864563,103.669411 303.865143,98.938713 316.647430,95.068710 
z"/>
<path fill="#F7BF5D" opacity="1.000000" stroke="none" 
	d="
M511.580078,409.356232 
	C515.830505,411.492279 518.710205,414.975037 521.703247,418.273987 
	C523.912964,420.709503 525.875183,421.206421 529.047974,419.974915 
	C547.124817,412.958130 562.870422,402.472778 576.822021,388.655334 
	C579.792908,390.387939 578.969116,393.270020 578.970886,395.824249 
	C579.009094,451.213379 578.995117,506.602539 579.018799,561.991699 
	C579.019714,564.126526 578.601196,566.325989 579.849365,568.715576 
	C556.643921,594.753723 529.108276,615.191284 498.401733,632.059631 
	C496.124207,631.226135 495.412109,629.389832 495.454620,627.622437 
	C495.715515,616.769409 495.324860,605.917114 495.541351,595.068054 
	C495.601288,592.065613 496.550934,589.219116 498.533020,586.346436 
	C499.469086,585.792847 498.627106,585.962036 499.259857,585.752075 
	C507.760529,582.930603 507.647583,582.928833 507.797821,573.566895 
	C507.954681,563.791443 507.123138,553.995056 508.411285,543.776611 
	C510.672791,535.492981 509.837036,527.450378 509.914185,519.525146 
	C510.241058,485.952759 509.520111,452.378815 509.786743,418.804688 
	C509.811218,415.720367 509.085083,412.443512 511.580078,409.356232 
z"/>
<path fill="#F6BE5A" opacity="1.000000" stroke="none" 
	d="
M576.875366,230.103256 
	C570.359253,225.725723 564.805725,219.730698 558.086182,215.099930 
	C540.787964,203.179047 521.811951,195.480347 501.054352,192.349014 
	C497.564575,191.822556 495.829376,190.366226 494.875031,187.081879 
	C493.008118,180.657043 489.701904,174.827255 486.705444,168.484528 
	C487.851044,161.928955 487.310699,155.662231 487.359406,149.405121 
	C487.422333,141.332397 487.360596,133.260498 487.408508,125.188484 
	C487.458374,116.785217 487.402252,108.381966 487.417999,99.978683 
	C487.433441,91.745659 487.357697,83.512466 487.378754,75.279533 
	C487.400635,66.716393 487.459198,58.153717 487.346130,49.590599 
	C487.294128,45.651985 486.875366,41.593029 490.632263,38.359997 
	C508.833984,46.438599 524.889404,57.559639 540.645508,69.156227 
	C554.444824,79.312614 566.911804,90.963028 578.915466,103.576324 
	C577.097351,106.222878 576.970764,108.978096 576.971680,111.869171 
	C576.983948,151.108688 576.940186,190.348221 576.875366,230.103256 
z"/>
<path fill="#F8A155" opacity="1.000000" stroke="none" 
	d="
M81.906982,388.216919 
	C89.596825,401.360596 97.884598,414.120056 108.994553,424.953766 
	C124.836014,440.401337 143.460678,450.913513 164.725769,457.738831 
	C167.860779,460.372437 167.214890,463.722931 167.218338,466.798676 
	C167.252121,496.895447 167.395294,526.992554 167.007614,557.088684 
	C166.750580,577.041809 167.523392,596.993164 167.178070,616.945862 
	C167.125244,619.998718 167.616928,623.567017 162.751740,624.540894 
	C151.726379,617.827393 141.345154,610.873840 131.395889,603.221375 
	C120.539352,594.871094 110.249413,585.966187 100.675018,576.193970 
	C94.067589,569.449951 87.166183,562.988464 81.027267,555.358093 
	C82.541000,553.624084 83.237968,551.707764 82.947540,549.671570 
	C81.713600,541.020203 82.579849,532.300903 82.503090,523.653259 
	C82.430939,515.525757 82.277267,507.320190 82.748032,499.136505 
	C83.225449,490.836884 82.337494,482.467560 82.324036,474.128326 
	C82.310852,465.958435 82.775276,457.788300 82.792236,449.617767 
	C82.809547,441.276550 82.643311,432.930908 82.344429,424.594849 
	C82.209518,420.832123 82.487846,417.053131 82.458687,413.312714 
	C82.398705,405.617249 83.192360,397.950409 81.131813,390.372711 
	C80.986259,389.837433 81.467438,389.131683 81.906982,388.216919 
z"/>
<path fill="#F8A656" opacity="1.000000" stroke="none" 
	d="
M162.563202,624.784790 
	C165.526077,622.766907 164.996628,619.606628 164.996994,616.643738 
	C165.003403,564.062134 165.004654,511.480499 165.011368,458.427094 
	C169.580627,457.889526 171.195709,459.862457 171.117905,464.652100 
	C170.825821,482.628021 171.140747,500.613373 170.902374,518.590881 
	C170.843307,523.045349 171.903595,524.604370 176.622559,524.518127 
	C190.766006,524.259827 204.918823,524.515747 219.515427,524.699219 
	C220.699112,525.234497 221.472717,525.779541 221.553009,526.591309 
	C222.124451,532.369568 223.299820,538.144287 221.605621,544.339355 
	C219.041565,546.639709 216.267929,546.176392 213.660965,546.202087 
	C201.851776,546.318726 190.041000,546.170593 178.231781,546.284912 
	C172.223648,546.343018 171.344971,547.254456 171.279160,553.316467 
	C171.190674,561.466187 171.183929,569.617920 171.281815,577.767456 
	C171.353577,583.741760 172.273956,584.683716 178.352936,584.714661 
	C198.146713,584.815308 217.941193,584.689575 237.734833,584.804260 
	C240.463745,584.820068 243.482101,584.125061 245.845581,587.071289 
	C244.812286,610.570374 245.930847,633.646423 245.425293,656.708984 
	C245.400391,657.844604 245.775177,658.989075 245.983093,660.481567 
	C216.523407,652.976501 189.090622,640.377747 162.563202,624.784790 
z"/>
<path fill="#F8A656" opacity="1.000000" stroke="none" 
	d="
M234.395050,149.148163 
	C224.464172,164.072037 216.034714,179.625687 211.065781,196.885117 
	C210.378754,199.271561 208.774551,199.369247 206.859024,199.323929 
	C187.852509,198.874359 169.546967,202.448532 151.376190,208.967361 
	C150.136841,208.335587 149.436890,207.280060 149.784866,206.414566 
	C151.708435,201.630341 150.009689,196.622711 150.878891,191.787247 
	C151.576416,187.906815 151.099960,183.791306 150.836639,180.086853 
	C150.499542,175.344040 150.847702,170.526474 150.812546,165.878494 
	C150.776108,161.060776 149.827454,156.111282 150.954971,151.161346 
	C151.736603,147.729919 151.168518,143.866760 150.909454,140.453766 
	C150.288361,132.271484 150.937653,124.112053 150.753250,115.971184 
	C150.644577,111.174507 150.411041,106.193924 150.769623,101.264603 
	C151.092178,96.830597 151.510956,92.120117 150.651489,87.621849 
	C149.866302,83.512405 150.713715,79.387917 150.743607,75.363724 
	C150.789291,69.213928 149.537170,62.850639 151.785950,56.458725 
	C167.244980,45.179836 184.109589,37.071083 201.017227,29.161043 
	C211.382950,24.311567 222.158737,20.259674 233.566101,16.934864 
	C233.731857,30.381668 232.939301,43.899517 233.454224,57.367374 
	C233.894211,68.875389 233.449493,80.367126 233.836716,91.869263 
	C234.228729,103.513565 233.408066,115.193771 233.382355,126.858833 
	C233.366196,134.194824 233.835434,141.531876 234.395050,149.148163 
z"/>
<path fill="#F8A055" opacity="1.000000" stroke="none" 
	d="
M151.658997,56.190331 
	C153.445892,58.473808 154.662689,60.700134 152.577026,63.404240 
	C151.574707,64.703766 152.197266,66.272568 153.057205,67.603180 
	C153.818924,68.781830 154.322983,70.174980 153.528778,71.362350 
	C151.822098,73.913933 151.956955,76.235847 153.579666,78.749191 
	C154.234604,79.763611 153.937347,81.061508 153.232407,82.063339 
	C151.793945,84.107635 151.916702,86.042442 153.298706,88.061935 
	C153.987701,89.068741 154.220673,90.379356 153.528488,91.381943 
	C151.776718,93.919296 151.979584,96.254692 153.585953,98.765335 
	C154.235916,99.781189 153.930084,101.077858 153.224045,102.078674 
	C151.779236,104.126678 151.942078,106.054245 153.304977,108.078468 
	C154.103317,109.264191 154.123795,110.675003 153.334793,111.864380 
	C151.997940,113.879684 151.751129,115.790215 153.188660,117.867546 
	C154.121033,119.214905 154.053116,120.678177 153.233887,122.106323 
	C152.903870,122.681664 152.199753,123.532684 152.379364,123.836647 
	C155.140091,128.508713 150.896317,133.662933 153.437485,138.316437 
	C154.030380,139.402191 153.988831,140.559586 153.448364,141.676071 
	C153.086945,142.422668 152.167847,143.461105 152.392624,143.844193 
	C155.142685,148.531250 150.907806,153.680237 153.444183,158.332581 
	C154.037140,159.420181 153.981934,160.577499 153.441803,161.692291 
	C153.080185,162.438599 152.163666,163.480423 152.388977,163.860947 
	C155.162384,168.544724 150.926331,173.693298 153.448242,178.350143 
	C154.247330,179.825714 153.816879,181.248840 152.954666,182.581879 
	C152.193558,183.758606 151.673523,185.148117 152.462112,186.340027 
	C154.146988,188.886612 154.134506,191.247726 152.413315,193.717407 
	C152.159409,194.081757 151.990402,194.876343 152.199554,195.137283 
	C156.012299,199.893997 151.343979,203.863663 151.018860,208.603638 
	C142.978683,213.558228 134.462570,217.180008 126.832581,222.529404 
	C107.804535,235.870056 93.175270,252.899353 82.511986,273.844604 
	C78.863640,272.881622 80.051193,269.945740 80.048058,267.678528 
	C79.984123,221.453995 80.005974,175.229355 79.981110,129.004761 
	C79.979965,126.870827 80.399467,124.671906 79.148109,122.284027 
	C80.553345,117.501167 84.344322,114.589027 87.394928,111.376900 
	C97.534302,100.700714 107.725166,90.019379 119.016052,80.513626 
	C129.333420,71.827469 140.259460,63.930145 151.658997,56.190331 
z"/>
<path fill="#F7B859" opacity="1.000000" stroke="none" 
	d="
M490.672668,38.010757 
	C488.650513,45.252678 489.912323,52.561474 489.757263,59.769936 
	C489.576904,68.156151 489.763672,76.550049 489.774109,84.940628 
	C489.784546,93.305183 489.767975,101.669769 489.774200,110.034332 
	C489.780334,118.261879 489.805176,126.489403 489.812653,134.716949 
	C489.820404,143.245407 489.769684,151.774277 489.845367,160.302078 
	C489.870758,163.162842 490.148376,166.002243 486.983185,168.014587 
	C480.254395,158.202927 473.859894,148.307678 465.923035,139.514633 
	C448.589264,120.311020 427.332550,107.102470 402.954956,98.080894 
	C404.146515,92.835114 404.019135,87.693260 404.012482,82.548256 
	C403.983490,60.142830 403.998016,37.737343 404.002747,15.331882 
	C404.003296,12.842422 404.120850,10.344181 403.088318,7.564776 
	C433.580841,13.227063 462.847565,23.021700 490.672668,38.010757 
z"/>
<path fill="#F7B759" opacity="1.000000" stroke="none" 
	d="
M498.790894,587.043274 
	C496.667175,602.063782 498.051880,616.701477 498.025848,631.712524 
	C482.714691,640.853821 466.672943,648.016968 450.075745,653.950378 
	C433.934875,659.720581 417.471161,664.295532 400.558868,667.193176 
	C399.949036,667.297668 399.389801,667.697449 398.404419,667.896484 
	C399.092682,663.606567 399.017883,659.294739 399.011902,654.976257 
	C398.984711,635.369995 399.018188,615.763672 398.978821,596.157532 
	C398.973450,593.479065 399.146820,590.855652 399.958618,587.899048 
	C401.669495,583.879395 405.066376,584.836426 407.864014,584.815918 
	C428.798218,584.662170 449.733551,584.746155 470.668518,584.741333 
	C477.812897,584.739624 484.958344,584.651489 492.101166,584.803772 
	C494.375427,584.852295 496.834564,584.506042 498.790894,587.043274 
z"/>
<path fill="#FFFFFE" opacity="1.000000" stroke="none" 
	d="
M499.445251,587.405640 
	C489.206573,587.406921 479.420258,587.224854 469.633820,587.218628 
	C446.727539,587.203979 423.821198,587.273560 400.455688,587.410278 
	C384.082062,587.407349 368.167786,587.263977 352.253204,587.213013 
	C341.473999,587.178528 330.694427,587.273987 319.455750,587.411865 
	C294.969421,587.446594 270.942383,587.380798 246.455978,587.414551 
	C224.365082,587.410156 202.733612,587.286133 181.101959,587.209839 
	C168.846558,587.166626 168.846268,587.201843 168.846497,574.974121 
	C168.846680,566.152039 169.015793,557.325256 168.769119,548.510071 
	C168.662964,544.716003 169.983597,543.697571 173.639679,543.726318 
	C189.116714,543.847778 204.595871,543.697815 220.525024,543.522949 
	C222.658401,542.163452 224.576492,541.792664 226.620270,541.797668 
	C238.090042,541.825867 249.561920,541.482300 261.521118,542.009460 
	C287.996979,541.560974 313.980560,541.582214 340.456879,542.008301 
	C364.286163,541.564514 387.622925,541.579773 411.451843,542.009521 
	C432.949097,541.633850 453.953918,541.438965 475.451172,542.109009 
	C485.537170,541.435181 495.139282,541.790588 504.737610,541.845276 
	C506.374512,541.854553 508.083893,541.849548 509.735382,543.496948 
	C510.088837,556.254211 509.839935,568.647888 510.266571,581.018372 
	C510.445648,586.211609 508.741638,587.916443 503.851379,587.211182 
	C502.564575,587.025696 501.217163,587.260376 499.445251,587.405640 
z"/>
<path fill="#F8A657" opacity="1.000000" stroke="none" 
	d="
M243.352905,413.554260 
	C225.851227,414.279236 210.867996,407.913086 197.799408,397.651642 
	C171.174118,376.745605 155.322937,349.826050 154.673538,315.166168 
	C153.950714,276.587402 186.837601,248.741974 224.656097,256.206573 
	C230.265396,257.313751 236.166000,257.747894 241.708603,260.686920 
	C245.558212,263.859406 245.237808,267.952393 245.241592,271.940796 
	C245.279480,311.836609 245.251297,351.732422 245.255768,391.628235 
	C245.256363,396.947540 245.341675,402.268158 245.188034,407.585602 
	C245.131317,409.548218 245.333511,411.631195 243.352905,413.554260 
z"/>
<path fill="#F8AB58" opacity="1.000000" stroke="none" 
	d="
M243.452133,414.007416 
	C242.998413,368.487793 243.000336,323.070221 242.998489,277.652649 
	C242.998276,272.341492 243.269150,267.012207 242.007828,261.344116 
	C253.752655,264.328003 263.814758,270.927795 272.871735,278.756714 
	C288.770142,292.499481 300.997986,308.966003 306.347412,329.714447 
	C312.133881,352.158081 309.133270,373.010834 293.987213,391.231720 
	C291.637756,394.058167 292.656830,395.324738 294.694611,397.260559 
	C305.777649,407.788849 316.784698,418.397095 327.986572,429.248199 
	C334.805511,435.817963 332.075256,444.068695 332.497620,451.559235 
	C332.811615,457.128143 332.403961,462.759033 332.584045,468.362427 
	C332.686462,471.549438 332.687073,474.693756 329.365906,476.997467 
	C318.411011,463.669098 308.582428,449.712921 298.786621,435.735260 
	C292.490570,426.751434 286.226196,417.742188 280.147034,408.611572 
	C278.389740,405.972260 276.983490,405.681488 274.138916,407.128876 
	C264.681854,411.940643 254.690536,414.849335 243.452133,414.007416 
z"/>
<path fill="#F7B35B" opacity="1.000000" stroke="none" 
	d="
M423.387238,362.100281 
	C411.316071,346.848816 400.585022,331.036285 389.949249,315.164734 
	C387.633850,311.709534 386.080566,310.348083 381.959869,313.225555 
	C373.254303,319.304596 363.232452,321.644135 352.286438,321.242249 
	C355.394196,305.607880 353.000214,289.873535 353.906097,274.276978 
	C353.984222,272.931580 354.206879,271.636871 355.591095,270.352692 
	C359.504028,274.068756 363.298126,277.848846 366.475494,282.090912 
	C369.239655,285.781250 371.239044,284.619293 374.082397,282.320526 
	C377.100220,279.880676 376.128876,278.074493 374.125183,275.763550 
	C363.432159,263.430542 352.795044,251.048950 342.163177,238.663040 
	C328.493530,222.738174 314.805847,206.828476 301.212524,190.838623 
	C296.182404,184.921661 296.568665,178.504654 301.890198,174.739944 
	C306.558380,171.437469 311.926636,172.420334 316.419983,177.611725 
	C328.413452,191.468292 340.344360,205.379044 352.296021,219.271774 
	C364.876923,233.895905 377.453094,248.524124 390.105103,263.236328 
	C394.382721,256.096954 394.039398,248.791000 388.289825,241.829056 
	C377.049408,228.218491 365.445740,214.907532 353.969330,201.492340 
	C347.364166,193.771347 340.658508,186.135727 334.101593,178.374207 
	C329.064148,172.411316 329.106415,166.628693 334.001373,162.498779 
	C338.744904,158.496643 344.713715,159.436478 349.699921,165.215881 
	C366.782379,185.015793 383.625610,205.024948 400.888580,224.665558 
	C421.002075,247.549286 419.060516,278.163422 401.102478,297.358429 
	C399.145203,299.450562 400.124512,300.584259 401.537842,302.331543 
	C408.915131,311.451599 419.028534,317.672913 426.940979,326.671661 
	C427.267883,336.542328 427.316254,346.117584 427.151215,355.691986 
	C427.105682,358.332214 427.169983,361.135864 423.387238,362.100281 
z"/>
<path fill="#F7B95B" opacity="1.000000" stroke="none" 
	d="
M423.029907,362.367920 
	C425.216003,360.745911 424.995728,358.520721 424.997070,356.384979 
	C425.002136,348.328979 424.969421,340.272766 425.025177,332.217163 
	C425.037109,330.491150 424.460693,328.520813 426.728516,327.117310 
	C433.875977,333.321075 440.787689,339.537292 447.401978,346.055328 
	C462.296326,360.732910 476.967285,375.637512 491.885956,390.290039 
	C498.271576,396.561737 505.048248,402.435272 511.814575,408.780579 
	C511.987885,451.589569 511.992432,494.107697 512.003601,536.625854 
	C512.004272,538.954834 512.183533,541.312744 510.258606,543.549438 
	C499.014648,543.797241 487.964478,543.724609 476.462646,543.527832 
	C471.894989,541.551575 470.461670,538.500549 472.141235,534.260620 
	C472.770752,532.671448 472.259705,531.443726 471.614777,530.096313 
	C470.823334,528.442810 470.255951,526.736511 471.724670,524.792725 
	C482.307648,523.703979 492.621826,524.225281 502.920135,524.295776 
	C507.096252,524.324341 508.315521,523.017090 508.240204,518.901611 
	C508.005768,506.095367 508.151947,493.282135 508.155914,480.471588 
	C508.156616,478.310120 508.247528,476.234680 506.411682,474.500854 
	C488.235840,457.335663 475.528320,435.968140 461.273956,415.775757 
	C448.709778,397.977631 435.862274,380.379517 423.029907,362.367920 
z"/>
<path fill="#F7B35C" opacity="1.000000" stroke="none" 
	d="
M329.042419,477.431885 
	C331.736816,471.957611 329.990875,466.355804 330.234558,461.018646 
	C330.569977,453.671661 330.138733,446.266693 330.352173,438.878967 
	C330.437622,435.921814 329.487488,433.040405 328.177582,429.926208 
	C335.078766,435.983429 342.213928,442.238007 348.885468,448.953217 
	C367.646027,467.836548 386.919861,486.176666 406.429596,504.277588 
	C409.103363,506.758301 411.440582,509.601685 414.081360,512.582581 
	C413.014435,521.483032 414.415527,530.149719 413.533112,538.762024 
	C413.382690,540.229797 413.614044,541.707092 412.305115,543.194275 
	C402.057587,544.300598 392.113037,543.716675 382.179352,543.783691 
	C368.754456,543.874268 355.327881,543.720703 341.449951,543.545593 
	C337.261658,537.548645 338.308990,531.470886 340.612427,525.086731 
	C346.437378,523.868042 351.911072,524.454895 357.359406,524.426636 
	C361.359741,524.405884 361.492523,523.114746 359.541779,520.120239 
	C350.674866,506.509064 340.721741,493.685333 331.112579,480.611877 
	C330.427368,479.679596 329.793365,478.709717 329.042419,477.431885 
z"/>
<path fill="#F7B05A" opacity="1.000000" stroke="none" 
	d="
M355.841431,269.779175 
	C355.985046,284.000366 355.905121,297.913727 356.059265,311.824432 
	C356.099091,315.418304 355.275665,318.328003 352.142639,320.793457 
	C342.717072,321.040680 334.187927,318.596558 326.206665,313.294312 
	C324.119598,310.200165 324.060364,306.673523 324.421997,303.834167 
	C325.093140,298.565308 322.256805,292.806732 326.740417,287.823059 
	C332.184723,292.893463 336.941223,298.667084 345.382965,297.773560 
	C347.298645,297.570831 349.882141,298.363098 350.818878,296.321991 
	C351.679169,294.447479 349.418182,293.181152 348.278961,291.852051 
	C325.327087,265.074127 302.344238,238.322693 279.372162,211.562073 
	C278.722260,210.804993 278.083862,210.032639 277.504211,209.221588 
	C273.682007,203.873795 274.170319,198.263916 278.759735,194.571289 
	C283.123505,191.060211 288.745911,191.580246 292.963379,196.377014 
	C302.192017,206.873291 311.229736,217.537613 320.327179,228.148941 
	C332.129120,241.914749 343.913269,255.695801 355.841431,269.779175 
z"/>
<path fill="#F8AF5A" opacity="1.000000" stroke="none" 
	d="
M327.017517,287.352295 
	C326.144562,293.533539 326.671906,299.448883 326.877960,305.344788 
	C326.960693,307.712311 326.909363,309.989410 326.066101,312.628174 
	C320.793884,310.482910 316.792755,306.453278 313.101929,302.182007 
	C295.597046,281.924042 278.186646,261.584412 260.770325,241.250122 
	C256.032990,235.719116 256.131714,229.411179 260.901001,225.301559 
	C265.304718,221.506943 271.503967,222.457672 276.234802,227.952087 
	C293.165253,247.615219 310.015167,267.347717 327.017517,287.352295 
z"/>
<path fill="#F8AD57" opacity="1.000000" stroke="none" 
	d="
M340.555176,524.691223 
	C341.004761,530.735168 341.000244,536.652893 340.996796,542.994873 
	C332.218658,543.543335 323.439606,543.761169 314.660278,543.771606 
	C297.411896,543.791992 280.163361,543.697021 262.464203,543.522461 
	C260.556519,542.590332 259.986420,541.250305 259.975861,539.694641 
	C259.943695,534.946838 259.226288,530.173584 260.749939,525.148376 
	C265.004944,523.968079 268.996704,524.433777 272.958923,524.433044 
	C295.339661,524.429199 317.720367,524.511780 340.555176,524.691223 
z"/>
<path fill="#F7B859" opacity="1.000000" stroke="none" 
	d="
M412.437622,543.543457 
	C410.324280,534.748596 412.524445,525.952637 411.129852,517.260315 
	C410.844269,515.480286 412.136963,514.223694 413.901306,513.078125 
	C415.526550,514.157532 417.181580,515.219666 418.059387,516.732666 
	C421.757019,523.106079 427.122437,524.691040 434.291382,524.362549 
	C446.537018,523.801575 458.830750,524.290771 471.559937,524.465820 
	C471.978302,526.092224 471.948181,527.765259 473.087830,528.765930 
	C475.745331,531.099426 476.338013,532.939636 473.609222,535.988953 
	C471.193085,538.689026 475.673431,540.261169 475.972107,543.076904 
	C464.096710,544.301086 452.165009,543.650024 440.242126,543.776489 
	C431.127411,543.873169 422.009979,543.713440 412.437622,543.543457 
z"/>
<path fill="#F8A957" opacity="1.000000" stroke="none" 
	d="
M260.608826,524.701904 
	C262.949554,530.654663 261.584290,536.649597 262.008820,542.972595 
	C248.642609,544.205139 235.263214,543.720276 221.431183,543.528442 
	C219.733047,537.531067 220.008469,531.578613 219.973846,525.235229 
	C233.353989,523.970154 246.753769,524.473267 260.608826,524.701904 
z"/>
</svg>